<?xml version="1.0" standalone="no"?>
<!DOCTYPE svg PUBLIC "-//W3C//DTD SVG 20010904//EN"
 "http://www.w3.org/TR/2001/REC-SVG-20010904/DTD/svg10.dtd">
<svg version="1.0" xmlns="http://www.w3.org/2000/svg"
 width="298.000000pt" height="298.000000pt" viewBox="0 0 298.000000 298.000000"
 preserveAspectRatio="xMidYMid meet">
<metadata>
Created by potrace 1.14, written by Peter Selinger 2001-2017
</metadata>
<g transform="translate(0.000000,298.000000) scale(0.100000,-0.100000)"
fill="#000000" stroke="none">
<path d="M1349 2976 c-2 -2 -29 -7 -59 -10 -423 -50 -850 -330 -1074 -703 -82
-138 -157 -329 -185 -473 -6 -30 -13 -68 -17 -85 -10 -51 -13 -326 -3 -395 15
-109 18 -122 39 -200 58 -206 130 -354 263 -535 209 -286 601 -511 979 -562
71 -10 328 -10 403 0 91 12 271 62 366 102 438 183 751 547 872 1012 37 138
41 185 41 383 -1 144 -5 192 -23 270 -12 52 -24 102 -26 110 -10 48 -52 157
-91 240 -134 283 -389 547 -661 684 -139 69 -305 124 -463 151 -39 7 -355 16
-361 11z m261 -501 c357 -33 699 -309 818 -660 91 -269 70 -534 -61 -788 l-40
-79 -26 29 c-15 15 -60 71 -101 123 -41 52 -77 97 -80 100 -3 3 -52 64 -108
135 -104 131 -128 160 -267 335 -103 128 -117 146 -172 215 -79 100 -82 103
-96 84 -15 -20 -21 -27 -320 -403 -137 -171 -261 -327 -277 -346 -173 -217
-212 -265 -219 -268 -12 -4 -106 191 -124 258 -99 363 -6 725 252 981 42 41
103 94 136 116 133 90 307 155 450 169 33 3 61 7 62 8 4 3 99 -2 173 -9z m-84
-1042 c15 -21 30 -40 34 -43 3 -3 27 -32 53 -65 26 -33 89 -112 139 -176 51
-63 105 -131 120 -150 15 -18 72 -90 127 -159 55 -69 100 -127 101 -130 0 -3
-28 -24 -62 -47 -230 -153 -489 -199 -783 -139 -121 25 -385 161 -368 190 6
10 211 268 254 321 15 17 43 53 181 226 14 19 35 44 45 57 10 12 41 51 68 86
28 36 53 65 56 65 4 1 19 -16 35 -36z"/>
</g>
</svg>
