<svg width="555" height="753" viewBox="0 0 555 753" fill="none" xmlns="http://www.w3.org/2000/svg">
<path id="Union" fill-rule="evenodd" clip-rule="evenodd" d="M178.543 1C385.95 1 554.087 169.137 554.087 376.543C554.087 466.638 522.362 549.322 469.473 614.034C469.093 614.498 468.713 614.962 468.331 615.424C451.606 635.691 432.795 654.173 412.228 670.542C348.095 721.586 266.881 752.087 178.543 752.087C90.6386 752.087 9.78784 721.885 -54.1979 671.291C-75.1966 654.687 -94.3792 635.886 -111.398 615.237C-164.88 550.348 -197 467.197 -197 376.543C-197 169.137 -28.8634 1 178.543 1ZM24.1418 573.87C66.6913 607.21 120.296 627.087 178.543 627.087C237.341 627.087 291.408 606.833 334.148 572.921L179.538 379.616L24.1418 573.87ZM388.684 513.026L179.544 251.543L-30.713 514.376C-56.8095 474.836 -72 427.464 -72 376.543C-72 238.172 40.1721 126 178.543 126C316.915 126 429.087 238.172 429.087 376.543C429.087 426.886 414.239 473.76 388.684 513.026Z" stroke="#F0F0F0" stroke-opacity="0.2"/>
</svg>
