<svg width="17" height="15" viewBox="0 0 17 15" fill="inherit" xmlns="http://www.w3.org/2000/svg">
<path d="M0.4375 7.6543C0.4375 7.43457 0.525391 7.23242 0.701172 7.06543L6.52832 1.25586C6.72168 1.0625 6.90625 0.992188 7.11719 0.992188C7.54785 0.992188 7.88184 1.30859 7.88184 1.74805C7.88184 1.95898 7.81152 2.16113 7.6709 2.30176L5.70215 4.30566L2.74902 7.00391L4.86719 6.87207H15.9854C16.4424 6.87207 16.7588 7.19727 16.7588 7.6543C16.7588 8.11133 16.4424 8.43652 15.9854 8.43652H4.86719L2.74023 8.30469L5.70215 11.0029L7.6709 13.0068C7.81152 13.1387 7.88184 13.3496 7.88184 13.5605C7.88184 14 7.54785 14.3164 7.11719 14.3164C6.90625 14.3164 6.72168 14.2373 6.5459 14.0703L0.701172 8.24316C0.525391 8.07617 0.4375 7.87402 0.4375 7.6543Z" />
</svg>
