<svg width="12" height="10" viewBox="0 0 12 10" fill="white" xmlns="http://www.w3.org/2000/svg">
<path d="M11.75 4.75781C11.75 4.55273 11.6621 4.3418 11.5156 4.20117L7.68359 0.369141C7.51953 0.205078 7.33203 0.128906 7.14453 0.128906C6.71094 0.128906 6.40625 0.439453 6.40625 0.84375C6.40625 1.06641 6.5 1.24219 6.63477 1.38281L7.96484 2.71875L9.44727 4.07812L8.12891 4.00781H1.26758C0.804688 4.00781 0.494141 4.3125 0.494141 4.75781C0.494141 5.20312 0.804688 5.50781 1.26758 5.50781H8.12891L9.44727 5.43164L7.96484 6.79688L6.63477 8.12695C6.5 8.26758 6.40625 8.44336 6.40625 8.66602C6.40625 9.07617 6.71094 9.38086 7.14453 9.38086C7.33203 9.38086 7.51367 9.30469 7.67188 9.14648L11.5156 5.31445C11.6621 5.16797 11.75 4.96289 11.75 4.75781Z"/>
</svg>
