<svg width="1440" height="1100" viewBox="0 0 1440 1100" fill="none" xmlns="http://www.w3.org/2000/svg">
<path fill-rule="evenodd" clip-rule="evenodd" d="M116.5 164C295.164 164 440 308.836 440 487.5C440 565.109 412.671 636.334 367.112 692.079C366.785 692.479 366.457 692.878 366.128 693.276C351.721 710.734 335.517 726.655 317.8 740.756C262.555 784.726 192.596 811 116.5 811C40.7771 811 -28.8692 784.983 -83.9876 741.401C-102.076 727.098 -118.601 710.903 -133.261 693.115C-179.331 637.218 -207 565.591 -207 487.5C-207 308.836 -62.1641 164 116.5 164ZM-16.5045 657.48C20.1485 686.2 66.3247 703.323 116.5 703.323C167.149 703.323 213.724 685.875 250.541 656.663L117.357 490.147L-16.5045 657.48ZM297.519 605.069L117.361 379.823L-63.7573 606.231C-86.2374 572.171 -99.3227 531.363 -99.3227 487.5C-99.3227 368.304 -2.69561 271.677 116.5 271.677C235.696 271.677 332.323 368.304 332.323 487.5C332.323 530.866 319.533 571.244 297.519 605.069Z" stroke="#F0F0F0" stroke-opacity="0.2"/>
<g style="mix-blend-mode:hard-light" opacity="0.2" filter="url(#filter0_f_922_648)">
<circle cx="1394" cy="7.99997" r="377" fill="url(#paint0_linear_922_648)"/>
<circle cx="1394" cy="7.99997" r="377" fill="url(#paint1_linear_922_648)"/>
<circle cx="1394" cy="7.99997" r="377" fill="url(#paint2_angular_922_648)" fill-opacity="0.2"/>
<circle cx="1394" cy="7.99997" r="377" fill="black" fill-opacity="0.2"/>
</g>
<g opacity="0.4" filter="url(#filter1_f_922_648)">
<circle cx="1394" cy="184" r="389" fill="url(#paint3_linear_922_648)"/>
<circle cx="1394" cy="184" r="389" fill="url(#paint4_linear_922_648)"/>
<circle cx="1394" cy="184" r="389" fill="url(#paint5_angular_922_648)" fill-opacity="0.2"/>
<circle cx="1394" cy="184" r="389" fill="black" fill-opacity="0.2"/>
</g>
<g style="mix-blend-mode:hard-light" opacity="0.2" filter="url(#filter2_f_922_648)">
<circle cx="555" cy="290" r="377" transform="rotate(90 555 290)" fill="url(#paint6_linear_922_648)"/>
<circle cx="555" cy="290" r="377" transform="rotate(90 555 290)" fill="url(#paint7_linear_922_648)"/>
<circle cx="555" cy="290" r="377" transform="rotate(90 555 290)" fill="url(#paint8_angular_922_648)" fill-opacity="0.2"/>
<circle cx="555" cy="290" r="377" transform="rotate(90 555 290)" fill="black" fill-opacity="0.2"/>
</g>
<g opacity="0.4" filter="url(#filter3_f_922_648)">
<circle cx="379" cy="290" r="389" transform="rotate(90 379 290)" fill="url(#paint9_linear_922_648)"/>
<circle cx="379" cy="290" r="389" transform="rotate(90 379 290)" fill="url(#paint10_linear_922_648)"/>
<circle cx="379" cy="290" r="389" transform="rotate(90 379 290)" fill="url(#paint11_angular_922_648)" fill-opacity="0.2"/>
<circle cx="379" cy="290" r="389" transform="rotate(90 379 290)" fill="black" fill-opacity="0.2"/>
</g>
<defs>
<filter id="filter0_f_922_648" x="584.943" y="-801.057" width="1618.11" height="1618.11" filterUnits="userSpaceOnUse" color-interpolation-filters="sRGB">
<feFlood flood-opacity="0" result="BackgroundImageFix"/>
<feBlend mode="normal" in="SourceGraphic" in2="BackgroundImageFix" result="shape"/>
<feGaussianBlur stdDeviation="216.028" result="effect1_foregroundBlur_922_648"/>
</filter>
<filter id="filter1_f_922_648" x="678.484" y="-531.516" width="1431.03" height="1431.03" filterUnits="userSpaceOnUse" color-interpolation-filters="sRGB">
<feFlood flood-opacity="0" result="BackgroundImageFix"/>
<feBlend mode="normal" in="SourceGraphic" in2="BackgroundImageFix" result="shape"/>
<feGaussianBlur stdDeviation="163.258" result="effect1_foregroundBlur_922_648"/>
</filter>
<filter id="filter2_f_922_648" x="-254.057" y="-519.057" width="1618.11" height="1618.11" filterUnits="userSpaceOnUse" color-interpolation-filters="sRGB">
<feFlood flood-opacity="0" result="BackgroundImageFix"/>
<feBlend mode="normal" in="SourceGraphic" in2="BackgroundImageFix" result="shape"/>
<feGaussianBlur stdDeviation="216.028" result="effect1_foregroundBlur_922_648"/>
</filter>
<filter id="filter3_f_922_648" x="-336.516" y="-425.516" width="1431.03" height="1431.03" filterUnits="userSpaceOnUse" color-interpolation-filters="sRGB">
<feFlood flood-opacity="0" result="BackgroundImageFix"/>
<feBlend mode="normal" in="SourceGraphic" in2="BackgroundImageFix" result="shape"/>
<feGaussianBlur stdDeviation="163.258" result="effect1_foregroundBlur_922_648"/>
</filter>
<linearGradient id="paint0_linear_922_648" x1="1004.44" y1="7.99995" x2="1758.44" y2="-79.711" gradientUnits="userSpaceOnUse">
<stop stop-color="#FF3866"/>
<stop offset="0.473958" stop-color="#711EFF"/>
<stop offset="1" stop-color="#3FE5FF"/>
</linearGradient>
<linearGradient id="paint1_linear_922_648" x1="1063.73" y1="-334.299" x2="1473.86" y2="119.077" gradientUnits="userSpaceOnUse">
<stop stop-color="#F6F063"/>
<stop offset="1" stop-color="#E07774" stop-opacity="0"/>
</linearGradient>
<radialGradient id="paint2_angular_922_648" cx="0" cy="0" r="1" gradientUnits="userSpaceOnUse" gradientTransform="translate(1036.88 -103.949) rotate(59.4295) scale(178.628 178.34)">
<stop offset="0.925861" stop-color="white"/>
<stop offset="1" stop-color="white" stop-opacity="0"/>
</radialGradient>
<linearGradient id="paint3_linear_922_648" x1="992.045" y1="184" x2="1770.05" y2="93.4972" gradientUnits="userSpaceOnUse">
<stop stop-color="#FF3866"/>
<stop offset="0.473958" stop-color="#711EFF"/>
<stop offset="1" stop-color="#3FE5FF"/>
</linearGradient>
<linearGradient id="paint4_linear_922_648" x1="1053.22" y1="-169.195" x2="1476.41" y2="298.613" gradientUnits="userSpaceOnUse">
<stop stop-color="#F6F063"/>
<stop offset="1" stop-color="#E07774" stop-opacity="0"/>
</linearGradient>
<radialGradient id="paint5_angular_922_648" cx="0" cy="0" r="1" gradientUnits="userSpaceOnUse" gradientTransform="translate(1025.51 68.4875) rotate(59.4295) scale(184.314 184.017)">
<stop offset="0.925861" stop-color="white"/>
<stop offset="1" stop-color="white" stop-opacity="0"/>
</radialGradient>
<linearGradient id="paint6_linear_922_648" x1="165.445" y1="290" x2="919.445" y2="202.289" gradientUnits="userSpaceOnUse">
<stop stop-color="#FF3866"/>
<stop offset="0.473958" stop-color="#711EFF"/>
<stop offset="1" stop-color="#3FE5FF"/>
</linearGradient>
<linearGradient id="paint7_linear_922_648" x1="224.733" y1="-52.2993" x2="634.864" y2="401.077" gradientUnits="userSpaceOnUse">
<stop stop-color="#F6F063"/>
<stop offset="1" stop-color="#E07774" stop-opacity="0"/>
</linearGradient>
<radialGradient id="paint8_angular_922_648" cx="0" cy="0" r="1" gradientUnits="userSpaceOnUse" gradientTransform="translate(197.879 178.051) rotate(59.4295) scale(178.628 178.34)">
<stop offset="0.925861" stop-color="white"/>
<stop offset="1" stop-color="white" stop-opacity="0"/>
</radialGradient>
<linearGradient id="paint9_linear_922_648" x1="-22.9547" y1="290" x2="755.045" y2="199.497" gradientUnits="userSpaceOnUse">
<stop stop-color="#FF3866"/>
<stop offset="0.473958" stop-color="#711EFF"/>
<stop offset="1" stop-color="#3FE5FF"/>
</linearGradient>
<linearGradient id="paint10_linear_922_648" x1="38.2201" y1="-63.1947" x2="461.406" y2="404.613" gradientUnits="userSpaceOnUse">
<stop stop-color="#F6F063"/>
<stop offset="1" stop-color="#E07774" stop-opacity="0"/>
</linearGradient>
<radialGradient id="paint11_angular_922_648" cx="0" cy="0" r="1" gradientUnits="userSpaceOnUse" gradientTransform="translate(10.5115 174.487) rotate(59.4295) scale(184.314 184.017)">
<stop offset="0.925861" stop-color="white"/>
<stop offset="1" stop-color="white" stop-opacity="0"/>
</radialGradient>
</defs>
</svg>
