<svg width="30" height="22" viewBox="0 0 30 22" fill="none" xmlns="http://www.w3.org/2000/svg">
<path d="M24.5625 2.20197C24.5625 2.20197 24.5625 2.20197 24.5156 2.20197C22.7812 1.40509 20.8594 0.795715 18.9375 0.46759C18.8906 0.46759 18.8906 0.420715 18.8906 0.420715L18.8438 0.46759C18.5625 0.93634 18.3281 1.45197 18.1406 1.92072C17.1094 1.78009 16.0312 1.68634 14.9531 1.68634C13.875 1.68634 12.8438 1.78009 11.8125 1.92072C11.625 1.45197 11.3906 0.93634 11.1094 0.46759H11.0625C11.0156 0.46759 11.0156 0.46759 11.0156 0.46759C9.09375 0.795715 7.17188 1.40509 5.4375 2.20197C5.39062 2.20197 5.39062 2.20197 5.39062 2.20197C1.82812 7.54572 0.84375 12.7488 1.3125 17.9051C1.3125 17.9051 1.3125 17.952 1.35938 17.952C3.375 19.4988 5.71875 20.6707 8.25 21.4207C8.29688 21.4207 8.29688 21.4207 8.34375 21.4207C8.85938 20.6707 9.32812 19.9207 9.75 19.1238V19.077C9.75 19.0301 9.70312 19.0301 9.70312 18.9832C8.95312 18.702 8.20312 18.3738 7.54688 17.952C7.5 17.952 7.5 17.952 7.5 17.9051C7.5 17.8582 7.5 17.8582 7.54688 17.8113C7.6875 17.7176 7.82812 17.6238 7.96875 17.4832C7.96875 17.4832 7.96875 17.4832 8.01562 17.4832C8.01562 17.4832 8.01562 17.4832 8.0625 17.4832C12.5625 19.5457 17.4375 19.5457 21.8906 17.4832H21.9375H21.9844C22.125 17.6238 22.2656 17.7176 22.4062 17.8113C22.4531 17.8582 22.4531 17.8582 22.4531 17.9051C22.4531 17.952 22.4531 17.952 22.4062 17.952C21.7031 18.3738 21 18.702 20.25 18.9832C20.2031 19.0301 20.2031 19.0301 20.2031 19.077V19.1238C20.625 19.9207 21.0938 20.6707 21.6094 21.4207C21.6094 21.4207 21.6562 21.4207 21.7031 21.4207C24.1875 20.6707 26.5312 19.4988 28.5938 17.952C28.6406 17.952 28.6406 17.9051 28.6406 17.9051C29.2031 11.952 27.6562 6.79572 24.5625 2.20197ZM10.4062 14.7645C9.04688 14.7645 7.92188 13.4988 7.92188 11.9988C7.92188 10.452 9.04688 9.23322 10.4062 9.23322C11.8125 9.23322 12.8906 10.452 12.8906 11.9988C12.8906 13.4988 11.7656 14.7645 10.4062 14.7645ZM19.5469 14.7645C18.1875 14.7645 17.1094 13.4988 17.1094 11.9988C17.1094 10.452 18.1875 9.23322 19.5469 9.23322C20.9531 9.23322 22.0781 10.452 22.0312 11.9988C22.0312 13.4988 20.9531 14.7645 19.5469 14.7645Z" fill="#F0F0F0"/>
</svg>
