<svg width="24" height="29" viewBox="0 0 24 29" fill="none" xmlns="http://www.w3.org/2000/svg">
<path d="M3.32812 9.15002V19.1813C3.375 19.5094 3.28125 19.8844 3.04688 20.1656L0.65625 23.025V23.4H7.40625V23.025L5.01562 20.1656C4.73438 19.8844 4.64062 19.5094 4.6875 19.1813V10.5094L10.5938 23.4469H11.2969L16.4062 10.5094V20.775C16.4062 21.0563 16.4062 21.1031 16.2188 21.2906L14.3906 23.0719V23.4469H23.2969V23.0719L21.5156 21.3375C21.375 21.2438 21.2812 21.0094 21.3281 20.8219V8.0719C21.2812 7.8844 21.375 7.6969 21.5156 7.60315L23.2969 5.86877V5.4469H17.0625L12.5625 16.6031L7.5 5.4469H0.9375V5.86877L3.04688 8.40002C3.23438 8.58752 3.375 8.86877 3.32812 9.15002Z" fill="#F0F0F0"/>
</svg>
