<svg width="24" height="20" viewBox="0 0 24 20" fill="none" xmlns="http://www.w3.org/2000/svg">
<path d="M21.5156 5.04572C22.4531 4.34259 23.2969 3.49884 23.9531 2.51447C23.1094 2.88947 22.125 3.17072 21.1406 3.26447C22.1719 2.65509 22.9219 1.71759 23.2969 0.545715C22.3594 1.10822 21.2812 1.53009 20.2031 1.76447C19.2656 0.78009 18 0.21759 16.5938 0.21759C13.875 0.21759 11.6719 2.42072 11.6719 5.13947C11.6719 5.51447 11.7188 5.88947 11.8125 6.26447C7.73438 6.03009 4.07812 4.06134 1.64062 1.10822C1.21875 1.81134 0.984375 2.65509 0.984375 3.59259C0.984375 5.28009 1.82812 6.78009 3.1875 7.67072C2.39062 7.62384 1.59375 7.43634 0.9375 7.06134V7.10822C0.9375 9.49884 2.625 11.4676 4.875 11.9363C4.5 12.0301 4.03125 12.1238 3.60938 12.1238C3.28125 12.1238 3 12.077 2.67188 12.0301C3.28125 13.9988 5.10938 15.4051 7.26562 15.452C5.57812 16.7645 3.46875 17.5613 1.17188 17.5613C0.75 17.5613 0.375 17.5145 0 17.4676C2.15625 18.8738 4.73438 19.6707 7.54688 19.6707C16.5938 19.6707 21.5156 12.2176 21.5156 5.70197C21.5156 5.46759 21.5156 5.28009 21.5156 5.04572Z" fill="#F0F0F0"/>
</svg>
